<?xml version="1.0" encoding="UTF-8" standalone="no"?>
<svg
   xmlns:dc="http://purl.org/dc/elements/1.1/"
   xmlns:cc="http://creativecommons.org/ns#"
   xmlns:rdf="http://www.w3.org/1999/02/22-rdf-syntax-ns#"
   xmlns:svg="http://www.w3.org/2000/svg"
   xmlns="http://www.w3.org/2000/svg"
   xmlns:sodipodi="http://sodipodi.sourceforge.net/DTD/sodipodi-0.dtd"
   xmlns:inkscape="http://www.inkscape.org/namespaces/inkscape"
   version="1.0"
   width="743px"
   height="211px"
   viewBox="0 0 7430 2110"
   preserveAspectRatio="xMidYMid meet"
   id="svg26"
   sodipodi:docname="titleLogo2.svg"
   inkscape:version="0.92.2 (5c3e80d, 2017-08-06)">
  <metadata
     id="metadata32">
    <rdf:RDF>
      <cc:Work
         rdf:about="">
        <dc:format>image/svg+xml</dc:format>
        <dc:type
           rdf:resource="http://purl.org/dc/dcmitype/StillImage" />
        <dc:title></dc:title>
      </cc:Work>
    </rdf:RDF>
  </metadata>
  <defs
     id="defs30" />
  <sodipodi:namedview
     pagecolor="#ffffff"
     bordercolor="#666666"
     borderopacity="1"
     objecttolerance="10"
     gridtolerance="10"
     guidetolerance="10"
     inkscape:pageopacity="0"
     inkscape:pageshadow="2"
     inkscape:window-width="1920"
     inkscape:window-height="1017"
     id="namedview28"
     showgrid="false"
     inkscape:zoom="0.54056077"
     inkscape:cx="160.88798"
     inkscape:cy="-96.496217"
     inkscape:window-x="-8"
     inkscape:window-y="32"
     inkscape:window-maximized="1"
     inkscape:current-layer="layer102" />
  <g
     id="layer101"
     transform="translate(280,20)"
     style="fill:#050505;stroke:none">
    <path
       d="m 5665,1669 c -379,-3 -955,-7 -1279,-8 -518,-1 -587,-3 -582,-16 3,-9 0,-15 -10,-15 -14,0 -15,-68 -12,-622 l 3,-623 755,6 c 415,3 988,7 1273,8 452,1 517,3 517,16 0,8 7,15 16,15 15,0 16,56 13,625 -2,344 -4,624 -4,623 0,-1 -310,-5 -690,-9 z"
       id="path2"
       inkscape:connector-curvature="0" />
    <path
       d="m 610,1634 c 0,-11 -6,-15 -17,-12 -17,4 -18,-5 -15,-121 1,-69 -1,-352 -5,-628 -5,-275 -5,-500 -2,-498 3,2 689,-2 1525,-10 835,-8 1538,-15 1562,-15 31,0 42,4 42,15 0,8 8,15 19,15 17,0 18,26 25,616 4,339 6,617 4,619 -2,3 -517,9 -1143,14 -627,6 -1332,13 -1567,16 -394,5 -428,5 -428,-11 z"
       id="path4"
       inkscape:connector-curvature="0" />
  </g>
  <g
     id="layer102"
     fill="#f5f5f5"
     stroke="none">
    <path
       d="m 6410,1656 c -3,-2 -533,-5 -1178,-7 l -1173,-4 3,-620 3,-620 1270,9 c 699,4 1270,9 1270,10 0,0 -2,278 -5,616 l -5,615 -90,3 c -50,1 -93,1 -95,-2 z m -1069,-435 43,-30 13,30 c 16,38 52,38 95,0 31,-28 35,-57 4,-32 -30,25 -36,1 -36,-129 0,-71 -4,-140 -10,-155 -21,-56 -157,-73 -218,-28 -38,28 -51,68 -29,90 23,23 51,6 55,-33 4,-35 26,-54 64,-54 39,0 70,33 66,72 -3,27 -10,33 -67,56 -35,14 -81,42 -104,63 -38,37 -39,41 -34,86 4,35 12,53 32,70 35,31 73,29 126,-6 z m 376,-6 c 36,-36 40,-63 5,-32 -10,10 -25,17 -33,17 -34,0 -39,-22 -39,-167 V 890 h 45 c 33,0 45,-4 45,-15 0,-11 -12,-15 -45,-15 h -45 l -1,-62 c 0,-53 -2,-60 -12,-44 -44,68 -56,83 -84,101 -40,25 -41,35 -3,35 h 30 v 155 c 0,152 1,156 25,180 35,35 70,32 112,-10 z m 282,22 c 29,-14 76,-73 86,-104 9,-30 -8,-29 -24,1 -16,29 -51,46 -96,46 -62,0 -125,-77 -125,-152 0,-16 13,-18 125,-18 143,0 143,0 103,-80 -46,-90 -151,-105 -227,-32 -90,86 -78,267 22,331 36,23 99,27 136,8 z m -1309,-10 c -14,-6 -28,-16 -32,-22 -4,-5 -8,-67 -8,-137 V 942 l 34,-21 c 44,-27 81,-27 100,1 13,18 16,51 16,150 0,118 -2,129 -22,148 l -22,20 h 90 c 85,-1 88,-1 57,-15 l -33,-14 V 1081 952 l 31,-26 c 38,-33 82,-34 103,-4 13,18 16,50 16,148 0,69 -4,130 -8,137 -4,7 -19,16 -32,22 -19,7 -1,10 75,10 76,0 94,-3 75,-10 -13,-6 -28,-15 -32,-22 -4,-7 -8,-70 -8,-140 0,-137 -12,-187 -48,-206 -43,-23 -106,-7 -146,38 -22,24 -36,27 -36,7 0,-22 -49,-56 -82,-56 -35,0 -64,14 -100,48 l -28,26 v -38 c 0,-37 -1,-38 -27,-33 -50,10 -89,29 -73,35 27,9 30,25 30,166 0,130 -2,141 -22,163 l -21,23 89,-1 c 75,0 85,-2 64,-12 z"
       id="path7"
       inkscape:connector-curvature="0" />
    <path
       d="m 5270,1180 c -22,-22 -26,-60 -10,-90 11,-20 59,-53 103,-69 l 27,-11 v 75 c 0,74 0,76 -32,95 -42,25 -63,25 -88,0 z"
       id="path9"
       inkscape:connector-curvature="0" />
    <path
       d="m 5845,958 c 9,-31 61,-78 86,-78 27,0 79,52 79,79 0,20 -6,21 -86,21 -84,0 -85,0 -79,-22 z"
       id="path11"
       inkscape:connector-curvature="0" />
    <path
       d="m 858,1521 c 1,-69 -1,-352 -5,-628 -5,-275 -5,-500 -2,-498 3,2 689,-2 1525,-10 835,-8 1537,-15 1560,-15 h 41 l 2,620 2,620 h -248 c -622,-1 -2831,22 -2853,29 l -25,8 z m 2230,-167 c 101,-50 123,-147 42,-189 -20,-10 -58,-15 -120,-15 -121,0 -153,-18 -113,-62 12,-13 31,-18 72,-18 115,0 178,-86 136,-182 -6,-15 -2,-18 30,-18 61,0 36,-24 -31,-30 -32,-3 -65,-9 -72,-13 -22,-14 -98,-10 -131,8 -82,42 -94,157 -22,211 13,10 11,17 -17,48 -37,42 -40,66 -12,91 19,17 19,18 -15,63 -19,25 -35,48 -35,53 0,46 68,78 166,79 56,0 81,-5 122,-26 z M 1643,1217 c 18,-8 38,-21 46,-30 17,-21 31,-22 31,-3 0,20 39,46 59,39 21,-8 71,-54 71,-66 0,-5 -7,-4 -15,3 -8,7 -21,10 -29,7 -11,-5 -15,-36 -18,-146 -3,-131 -5,-142 -26,-163 -20,-20 -33,-23 -102,-23 -74,0 -81,2 -110,30 -34,32 -37,70 -8,88 23,15 48,-8 48,-42 0,-36 17,-51 57,-51 41,0 73,30 73,68 0,24 -8,31 -75,61 -121,54 -159,116 -119,192 23,46 63,58 117,36 z m -203,-7 c -56,-13 -60,-27 -60,-192 V 870 h 50 c 38,0 50,-4 50,-15 0,-11 -12,-15 -50,-15 h -50 v -69 c 0,-107 45,-133 110,-66 39,40 55,43 71,14 9,-18 7,-25 -14,-47 -34,-34 -108,-41 -157,-14 -42,22 -80,91 -80,144 0,37 -1,38 -35,38 -24,0 -35,5 -35,15 0,10 11,15 35,15 h 35 v 148 c 0,159 -7,186 -53,195 -12,2 32,4 98,5 83,0 109,-3 85,-8 z m 1161,-20 44,-29 8,24 c 5,13 17,27 27,30 23,7 76,-19 90,-44 15,-30 12,-36 -9,-17 -35,31 -41,12 -41,-124 0,-71 -4,-140 -10,-155 -21,-56 -157,-73 -218,-28 -38,28 -51,68 -29,90 23,23 51,6 55,-33 4,-35 26,-54 62,-54 38,0 60,20 66,61 l 6,35 -67,29 c -37,16 -86,46 -108,66 -38,37 -39,41 -34,86 4,35 12,53 32,70 35,31 73,29 126,-7 z m -571,13 c -45,-17 -50,-32 -50,-147 0,-88 4,-117 17,-136 25,-37 35,-41 60,-25 30,20 51,19 65,-5 15,-24 53,-26 62,-4 3,9 6,78 6,154 0,143 -3,152 -45,163 -11,2 25,5 80,5 55,0 93,-2 85,-5 -45,-17 -50,-32 -50,-147 0,-93 3,-116 20,-143 23,-38 28,-39 68,-16 25,14 32,15 46,4 48,-40 -26,-107 -74,-68 -9,7 -25,25 -38,41 l -22,29 v -42 c 0,-22 -4,-41 -10,-41 -5,0 -33,9 -61,20 -52,19 -52,19 -77,0 -35,-28 -50,-25 -94,20 l -38,41 v -41 c 0,-22 -4,-40 -9,-40 -5,0 -31,10 -58,21 -31,14 -43,23 -33,27 27,9 30,25 30,169 0,135 -1,143 -22,157 -21,15 -17,16 67,15 50,0 83,-3 75,-6 z m 1427,-4 c 137,-51 163,-276 42,-356 -76,-50 -162,-40 -223,27 -135,150 1,397 181,329 z"
       id="path13"
       inkscape:connector-curvature="0" />
    <path
       d="m 2890,1312 c -43,-21 -47,-40 -19,-76 l 22,-28 114,4 c 88,3 117,8 130,21 24,23 3,64 -42,83 -49,20 -161,18 -205,-4 z"
       id="path15"
       inkscape:connector-curvature="0" />
    <path
       d="m 2931,1031 c -35,-35 -40,-141 -10,-177 19,-23 79,-14 101,16 35,47 36,130 2,164 -21,22 -70,20 -93,-3 z"
       id="path17"
       inkscape:connector-curvature="0" />
    <path
       d="m 1601,1154 c -41,-52 -21,-99 59,-139 27,-14 52,-25 55,-25 3,0 5,33 5,74 0,67 -2,75 -24,89 -46,31 -71,31 -95,1 z"
       id="path19"
       inkscape:connector-curvature="0" />
    <path
       d="m 2530,1150 c -24,-24 -26,-67 -4,-98 13,-19 101,-72 119,-72 3,0 5,34 5,75 0,74 0,76 -32,95 -42,25 -63,25 -88,0 z"
       id="path21"
       inkscape:connector-curvature="0" />
    <path
       d="m 3362,1160 c -38,-36 -55,-82 -59,-160 -7,-120 41,-182 115,-151 81,34 113,241 47,307 -30,30 -74,31 -103,4 z"
       id="path23"
       inkscape:connector-curvature="0" />
  </g>
</svg>
